<svg width="26" height="26" viewBox="0 0 26 26" fill="none" xmlns="http://www.w3.org/2000/svg">
<path d="M25.1875 13C25.1884 12.0669 24.9596 11.148 24.5215 10.3241C24.0834 9.50031 23.4493 8.79694 22.6751 8.27603C21.901 7.75513 21.0106 7.43268 20.0824 7.33714C19.1542 7.24159 18.2168 7.37587 17.3528 7.72814C16.4887 8.08041 15.7246 8.63986 15.1279 9.35714C14.5311 10.0744 14.12 10.9275 13.9307 11.8412C13.7415 12.7549 13.7799 13.7011 14.0427 14.5964C14.3055 15.4918 14.7845 16.3087 15.4375 16.9752V22.75C15.4374 22.8886 15.4727 23.0249 15.5402 23.1459C15.6076 23.267 15.7048 23.3688 15.8227 23.4417C15.9406 23.5145 16.0751 23.556 16.2135 23.5623C16.352 23.5685 16.4897 23.5392 16.6136 23.4772L19.5 22.033L22.3864 23.4772C22.5103 23.5392 22.648 23.5685 22.7865 23.5623C22.9249 23.556 23.0594 23.5145 23.1773 23.4417C23.2952 23.3688 23.3924 23.267 23.4598 23.1459C23.5273 23.0249 23.5626 22.8886 23.5625 22.75V16.9752C24.6046 15.9145 25.1882 14.4869 25.1875 13ZM19.5 8.9375C20.3035 8.9375 21.0889 9.17576 21.757 9.62216C22.4251 10.0685 22.9458 10.703 23.2533 11.4453C23.5607 12.1877 23.6412 13.0045 23.4844 13.7926C23.3277 14.5806 22.9408 15.3045 22.3726 15.8726C21.8045 16.4408 21.0806 16.8277 20.2926 16.9844C19.5045 17.1412 18.6877 17.0607 17.9453 16.7533C17.203 16.4458 16.5685 15.9251 16.1222 15.257C15.6758 14.5889 15.4375 13.8035 15.4375 13C15.4375 11.9226 15.8655 10.8892 16.6274 10.1274C17.3892 9.36551 18.4226 8.9375 19.5 8.9375ZM19.8636 20.3978C19.7507 20.3413 19.6262 20.3119 19.5 20.3119C19.3738 20.3119 19.2493 20.3413 19.1364 20.3978L17.0625 21.4358V18.138C17.8242 18.4998 18.6568 18.6875 19.5 18.6875C20.3432 18.6875 21.1758 18.4998 21.9375 18.138V21.4358L19.8636 20.3978ZM13.8125 19.5C13.8125 19.7155 13.7269 19.9222 13.5745 20.0745C13.4222 20.2269 13.2155 20.3125 13 20.3125H4.0625C3.63152 20.3125 3.2182 20.1413 2.91345 19.8365C2.6087 19.5318 2.4375 19.1185 2.4375 18.6875V5.6875C2.4375 5.25652 2.6087 4.8432 2.91345 4.53845C3.2182 4.2337 3.63152 4.0625 4.0625 4.0625H21.9375C22.3685 4.0625 22.7818 4.2337 23.0865 4.53845C23.3913 4.8432 23.5625 5.25652 23.5625 5.6875C23.5625 5.90299 23.4769 6.10965 23.3245 6.26202C23.1722 6.4144 22.9655 6.5 22.75 6.5C22.5345 6.5 22.3278 6.4144 22.1755 6.26202C22.0231 6.10965 21.9375 5.90299 21.9375 5.6875H4.0625V18.6875H13C13.2155 18.6875 13.4222 18.7731 13.5745 18.9255C13.7269 19.0778 13.8125 19.2845 13.8125 19.5ZM12.1875 13.8125C12.1875 14.028 12.1019 14.2347 11.9495 14.387C11.7972 14.5394 11.5905 14.625 11.375 14.625H7.3125C7.09701 14.625 6.89035 14.5394 6.73798 14.387C6.5856 14.2347 6.5 14.028 6.5 13.8125C6.5 13.597 6.5856 13.3903 6.73798 13.238C6.89035 13.0856 7.09701 13 7.3125 13H11.375C11.5905 13 11.7972 13.0856 11.9495 13.238C12.1019 13.3903 12.1875 13.597 12.1875 13.8125ZM12.1875 10.5625C12.1875 10.778 12.1019 10.9847 11.9495 11.137C11.7972 11.2894 11.5905 11.375 11.375 11.375H7.3125C7.09701 11.375 6.89035 11.2894 6.73798 11.137C6.5856 10.9847 6.5 10.778 6.5 10.5625C6.5 10.347 6.5856 10.1403 6.73798 9.98798C6.89035 9.8356 7.09701 9.75 7.3125 9.75H11.375C11.5905 9.75 11.7972 9.8356 11.9495 9.98798C12.1019 10.1403 12.1875 10.347 12.1875 10.5625Z" fill="#73768C"/>
</svg>
