<svg width="26" height="26" viewBox="0 0 26 26" fill="none" xmlns="http://www.w3.org/2000/svg">
<path d="M24.7651 7.73805C24.5818 7.57824 24.3551 7.4765 24.1139 7.44576C23.8727 7.41502 23.6277 7.45666 23.4102 7.56539L18.3108 10.1045L14.0533 3.03266C13.9438 2.85119 13.7893 2.70108 13.6048 2.59688C13.4203 2.49268 13.212 2.43793 13.0001 2.43793C12.7881 2.43793 12.5798 2.49268 12.3953 2.59688C12.2108 2.70108 12.0563 2.85119 11.9469 3.03266L7.68935 10.1075L2.59193 7.56844C2.37493 7.46067 2.13094 7.41939 1.89057 7.44979C1.6502 7.48018 1.42416 7.58089 1.24082 7.73928C1.05748 7.89767 0.924999 8.10669 0.860012 8.34009C0.795024 8.5735 0.800421 8.8209 0.875526 9.05125L4.63334 20.5644C4.67112 20.68 4.7344 20.7857 4.8185 20.8737C4.9026 20.9616 5.00538 21.0295 5.11925 21.0724C5.23311 21.1153 5.35516 21.1321 5.47638 21.1215C5.59759 21.1109 5.71488 21.0732 5.81959 21.0113C5.84498 20.996 8.44193 19.5 13.0001 19.5C17.5582 19.5 20.1551 20.996 20.1785 21.0102C20.2832 21.0728 20.4007 21.111 20.5223 21.122C20.6438 21.1329 20.7662 21.1164 20.8805 21.0735C20.9947 21.0307 21.0978 20.9627 21.1822 20.8746C21.2666 20.7864 21.33 20.6804 21.3678 20.5644L25.1256 9.0543C25.2029 8.82388 25.2098 8.57569 25.1456 8.3413C25.0814 8.10692 24.949 7.89692 24.7651 7.73805ZM20.1094 19.178C18.8907 18.6611 16.4613 17.875 13.0001 17.875C9.53881 17.875 7.10943 18.6611 5.89068 19.178L2.71279 9.44531L7.29021 11.7274C7.56728 11.8641 7.88548 11.892 8.18211 11.8057C8.47875 11.7194 8.73232 11.5252 8.89287 11.2612L13.0001 4.43422L17.1072 11.2592C17.2679 11.5227 17.5213 11.7166 17.8177 11.8029C18.114 11.8891 18.4319 11.8615 18.7089 11.7254L23.2873 9.44531L20.1094 19.178ZM17.8619 15.928C17.8287 16.116 17.7304 16.2863 17.5843 16.409C17.4381 16.5318 17.2534 16.5992 17.0626 16.5994C17.0149 16.5993 16.9673 16.5952 16.9204 16.5872C14.3251 16.1417 11.673 16.1417 9.07771 16.5872C8.86546 16.6246 8.64702 16.5762 8.47046 16.4526C8.2939 16.329 8.17367 16.1403 8.13623 15.928C8.09879 15.7158 8.1472 15.4974 8.27081 15.3208C8.39442 15.1442 8.58311 15.024 8.79537 14.9866C11.5774 14.5085 14.4207 14.5085 17.2027 14.9866C17.4146 15.0238 17.603 15.1434 17.7267 15.3193C17.8505 15.4953 17.8994 15.7131 17.8629 15.925L17.8619 15.928Z" fill="#73768C"/>
</svg>
