<svg width="26" height="26" viewBox="0 0 26 26" fill="none" xmlns="http://www.w3.org/2000/svg">
<path d="M24.375 21.125H22.75V11.7355C22.75 11.5106 22.7034 11.2882 22.613 11.0822C22.5226 10.8763 22.3905 10.6914 22.2249 10.5391L14.0999 2.87318C14.0959 2.86972 14.0922 2.86599 14.0887 2.86201C13.7896 2.58996 13.3998 2.43921 12.9954 2.43921C12.5911 2.43921 12.2013 2.58996 11.9021 2.86201L11.8909 2.87318L3.77508 10.5391C3.60953 10.6914 3.47738 10.8763 3.387 11.0822C3.29662 11.2882 3.24997 11.5106 3.25 11.7355V21.125H1.625C1.40951 21.125 1.20285 21.2106 1.05048 21.363C0.898102 21.5153 0.8125 21.722 0.8125 21.9375C0.8125 22.153 0.898102 22.3596 1.05048 22.512C1.20285 22.6644 1.40951 22.75 1.625 22.75H24.375C24.5905 22.75 24.7972 22.6644 24.9495 22.512C25.1019 22.3596 25.1875 22.153 25.1875 21.9375C25.1875 21.722 25.1019 21.5153 24.9495 21.363C24.7972 21.2106 24.5905 21.125 24.375 21.125ZM4.875 11.7355L4.88617 11.7254L13 4.06248L21.1148 11.7233L21.126 11.7335V21.125H16.25V16.25C16.25 15.819 16.0788 15.4057 15.774 15.1009C15.4693 14.7962 15.056 14.625 14.625 14.625H11.375C10.944 14.625 10.5307 14.7962 10.226 15.1009C9.92121 15.4057 9.75 15.819 9.75 16.25V21.125H4.875V11.7355ZM14.625 21.125H11.375V16.25H14.625V21.125Z" fill="#73768C"/>
</svg>
