<svg width="26" height="26" viewBox="0 0 26 26" fill="none" xmlns="http://www.w3.org/2000/svg">
<path d="M16.6563 8.12506C17.2187 8.12506 17.7685 7.95828 18.2362 7.6458C18.7038 7.33333 19.0683 6.8892 19.2835 6.36957C19.4988 5.84994 19.5551 5.27816 19.4454 4.72652C19.3356 4.17489 19.0648 3.66818 18.6671 3.27048C18.2694 2.87277 17.7627 2.60193 17.211 2.4922C16.6594 2.38248 16.0876 2.43879 15.568 2.65403C15.0484 2.86927 14.6042 3.23376 14.2918 3.70141C13.9793 4.16906 13.8125 4.71887 13.8125 5.28131C13.8125 6.03552 14.1121 6.75884 14.6454 7.29215C15.1787 7.82545 15.902 8.12506 16.6563 8.12506ZM16.6563 4.06256C16.8973 4.06256 17.1329 4.13404 17.3334 4.26796C17.5338 4.40188 17.69 4.59222 17.7822 4.81492C17.8745 5.03761 17.8986 5.28266 17.8516 5.51908C17.8046 5.75549 17.6885 5.97265 17.518 6.1431C17.3476 6.31354 17.1304 6.42962 16.894 6.47664C16.6576 6.52367 16.4126 6.49953 16.1899 6.40729C15.9672 6.31505 15.7768 6.15884 15.6429 5.95841C15.509 5.75799 15.4375 5.52236 15.4375 5.28131C15.4375 4.95808 15.5659 4.64809 15.7945 4.41953C16.023 4.19097 16.333 4.06256 16.6563 4.06256ZM20.3125 13.8126C19.509 13.8126 18.7236 14.0508 18.0555 14.4972C17.3874 14.9436 16.8667 15.5781 16.5592 16.3204C16.2518 17.0627 16.1713 17.8796 16.3281 18.6676C16.4848 19.4557 16.8717 20.1795 17.4399 20.7477C18.008 21.3158 18.7319 21.7028 19.5199 21.8595C20.308 22.0163 21.1248 21.9358 21.8672 21.6283C22.6095 21.3208 23.244 20.8001 23.6903 20.1321C24.1367 19.464 24.375 18.6785 24.375 17.8751C24.375 16.7976 23.947 15.7643 23.1851 15.0024C22.4233 14.2406 21.3899 13.8126 20.3125 13.8126ZM20.3125 20.3126C19.8304 20.3126 19.3591 20.1696 18.9583 19.9018C18.5575 19.6339 18.245 19.2532 18.0605 18.8079C17.8761 18.3625 17.8278 17.8724 17.9218 17.3995C18.0159 16.9267 18.248 16.4924 18.5889 16.1515C18.9298 15.8106 19.3641 15.5784 19.837 15.4844C20.3098 15.3903 20.7999 15.4386 21.2453 15.6231C21.6907 15.8076 22.0714 16.12 22.3392 16.5209C22.607 16.9217 22.75 17.393 22.75 17.8751C22.75 18.5215 22.4932 19.1415 22.0361 19.5986C21.579 20.0558 20.959 20.3126 20.3125 20.3126ZM5.6875 13.8126C4.88402 13.8126 4.09857 14.0508 3.4305 14.4972C2.76242 14.9436 2.24172 15.5781 1.93424 16.3204C1.62676 17.0627 1.54631 17.8796 1.70306 18.6676C1.85981 19.4557 2.24673 20.1795 2.81488 20.7477C3.38303 21.3158 4.1069 21.7028 4.89495 21.8595C5.683 22.0163 6.49983 21.9358 7.24215 21.6283C7.98448 21.3208 8.61895 20.8001 9.06535 20.1321C9.51174 19.464 9.75 18.6785 9.75 17.8751C9.75 17.3416 9.64492 16.8133 9.44076 16.3204C9.2366 15.8275 8.93736 15.3797 8.56012 15.0024C8.18288 14.6252 7.73504 14.326 7.24215 14.1218C6.74927 13.9176 6.221 13.8126 5.6875 13.8126ZM5.6875 20.3126C5.20541 20.3126 4.73414 20.1696 4.3333 19.9018C3.93245 19.6339 3.62003 19.2532 3.43555 18.8079C3.25106 18.3625 3.20279 17.8724 3.29684 17.3995C3.39089 16.9267 3.62304 16.4924 3.96393 16.1515C4.30482 15.8106 4.73914 15.5784 5.21197 15.4844C5.6848 15.3903 6.1749 15.4386 6.62029 15.6231C7.06569 15.8076 7.44637 16.12 7.71421 16.5209C7.98204 16.9217 8.125 17.393 8.125 17.8751C8.125 18.5215 7.8682 19.1415 7.41108 19.5986C6.95396 20.0558 6.33397 20.3126 5.6875 20.3126ZM19.5 12.1876H15.4375C15.3308 12.1876 15.2251 12.1667 15.1264 12.1259C15.0278 12.0851 14.9382 12.0253 14.8627 11.9499L12.1875 9.27373L10.0862 11.3751L13.5748 14.8627C13.6503 14.9382 13.7101 15.0279 13.7509 15.1265C13.7916 15.2251 13.8126 15.3308 13.8125 15.4376V20.3126C13.8125 20.5281 13.7269 20.7347 13.5745 20.8871C13.4222 21.0395 13.2155 21.1251 13 21.1251C12.7845 21.1251 12.5779 21.0395 12.4255 20.8871C12.2731 20.7347 12.1875 20.5281 12.1875 20.3126V15.7737L8.36266 11.9499C8.28711 11.8744 8.22719 11.7848 8.1863 11.6862C8.14541 11.5876 8.12436 11.4818 8.12436 11.3751C8.12436 11.2683 8.14541 11.1626 8.1863 11.0639C8.22719 10.9653 8.28711 10.8757 8.36266 10.8002L11.6127 7.55022C11.6881 7.47467 11.7777 7.41475 11.8764 7.37386C11.975 7.33297 12.0807 7.31192 12.1875 7.31192C12.2943 7.31192 12.4 7.33297 12.4986 7.37386C12.5973 7.41475 12.6869 7.47467 12.7623 7.55022L15.7737 10.5626H19.5C19.7155 10.5626 19.9222 10.6482 20.0745 10.8005C20.2269 10.9529 20.3125 11.1596 20.3125 11.3751C20.3125 11.5906 20.2269 11.7972 20.0745 11.9496C19.9222 12.102 19.7155 12.1876 19.5 12.1876Z" fill="#73768C"/>
</svg>
