<svg width="26" height="26" viewBox="0 0 26 26" fill="none" xmlns="http://www.w3.org/2000/svg">
<path d="M20.0668 13.1077L14.8251 11.178L12.8955 5.93227C12.7812 5.62182 12.5744 5.35389 12.3031 5.16464C12.0318 4.97539 11.7089 4.87392 11.3781 4.87392C11.0473 4.87392 10.7245 4.97539 10.4531 5.16464C10.1818 5.35389 9.97504 5.62182 9.86077 5.93227L7.92905 11.1719L2.68335 13.1016C2.3729 13.2158 2.10498 13.4226 1.91572 13.6939C1.72647 13.9652 1.625 14.2881 1.625 14.6189C1.625 14.9497 1.72647 15.2726 1.91572 15.5439C2.10498 15.8152 2.3729 16.022 2.68335 16.1362L7.92194 18.0781L9.85163 23.3208C9.9659 23.6312 10.1727 23.8992 10.444 24.0884C10.7153 24.2777 11.0382 24.3791 11.369 24.3791C11.6998 24.3791 12.0226 24.2777 12.294 24.0884C12.5653 23.8992 12.772 23.6312 12.8863 23.3208L14.816 18.0791L20.0617 16.1495C20.3722 16.0352 20.6401 15.8284 20.8293 15.5571C21.0186 15.2858 21.1201 14.9629 21.1201 14.6321C21.1201 14.3013 21.0186 13.9784 20.8293 13.7071C20.6401 13.4358 20.3722 13.229 20.0617 13.1148L20.0668 13.1077ZM14.2584 16.5547C14.0389 16.6353 13.8395 16.7627 13.6741 16.9281C13.5087 17.0935 13.3813 17.2929 13.3007 17.5124L11.371 22.7388L9.44538 17.5084C9.36473 17.29 9.23772 17.0916 9.07309 16.927C8.90846 16.7623 8.71011 16.6353 8.49171 16.5547L3.2653 14.625L8.49171 12.6953C8.71011 12.6147 8.90846 12.4877 9.07309 12.323C9.23772 12.1584 9.36473 11.96 9.44538 11.7416L11.3751 6.51523L13.3048 11.7416C13.3853 11.9612 13.5128 12.1606 13.6781 12.326C13.8435 12.4914 14.0429 12.6188 14.2625 12.6994L19.4889 14.6291L14.2584 16.5547ZM14.6251 4.0625C14.6251 3.84701 14.7107 3.64035 14.863 3.48798C15.0154 3.3356 15.2221 3.25 15.4376 3.25H17.0626V1.625C17.0626 1.40951 17.1482 1.20285 17.3005 1.05048C17.4529 0.898102 17.6596 0.8125 17.8751 0.8125C18.0906 0.8125 18.2972 0.898102 18.4496 1.05048C18.602 1.20285 18.6876 1.40951 18.6876 1.625V3.25H20.3126C20.5281 3.25 20.7347 3.3356 20.8871 3.48798C21.0395 3.64035 21.1251 3.84701 21.1251 4.0625C21.1251 4.27799 21.0395 4.48465 20.8871 4.63702C20.7347 4.7894 20.5281 4.875 20.3126 4.875H18.6876V6.5C18.6876 6.71549 18.602 6.92215 18.4496 7.07452C18.2972 7.2269 18.0906 7.3125 17.8751 7.3125C17.6596 7.3125 17.4529 7.2269 17.3005 7.07452C17.1482 6.92215 17.0626 6.71549 17.0626 6.5V4.875H15.4376C15.2221 4.875 15.0154 4.7894 14.863 4.63702C14.7107 4.48465 14.6251 4.27799 14.6251 4.0625ZM25.1876 8.9375C25.1876 9.15299 25.102 9.35965 24.9496 9.51202C24.7972 9.6644 24.5906 9.75 24.3751 9.75H23.5626V10.5625C23.5626 10.778 23.477 10.9846 23.3246 11.137C23.1722 11.2894 22.9656 11.375 22.7501 11.375C22.5346 11.375 22.3279 11.2894 22.1755 11.137C22.0232 10.9846 21.9376 10.778 21.9376 10.5625V9.75H21.1251C20.9096 9.75 20.7029 9.6644 20.5505 9.51202C20.3982 9.35965 20.3126 9.15299 20.3126 8.9375C20.3126 8.72201 20.3982 8.51535 20.5505 8.36298C20.7029 8.2106 20.9096 8.125 21.1251 8.125H21.9376V7.3125C21.9376 7.09701 22.0232 6.89035 22.1755 6.73798C22.3279 6.5856 22.5346 6.5 22.7501 6.5C22.9656 6.5 23.1722 6.5856 23.3246 6.73798C23.477 6.89035 23.5626 7.09701 23.5626 7.3125V8.125H24.3751C24.5906 8.125 24.7972 8.2106 24.9496 8.36298C25.102 8.51535 25.1876 8.72201 25.1876 8.9375Z" fill="#73768C"/>
</svg>
