<svg width="26" height="26" viewBox="0 0 26 26" fill="none" xmlns="http://www.w3.org/2000/svg">
<path d="M23.007 5.7292L13.257 2.4792C13.0902 2.4236 12.9098 2.4236 12.743 2.4792L2.99305 5.7292C2.83126 5.78313 2.69055 5.8866 2.59084 6.02495C2.49113 6.16331 2.43749 6.32952 2.4375 6.50006V14.6251C2.4375 14.8405 2.5231 15.0472 2.67548 15.1996C2.82785 15.352 3.03451 15.4376 3.25 15.4376C3.46549 15.4376 3.67215 15.352 3.82452 15.1996C3.9769 15.0472 4.0625 14.8405 4.0625 14.6251V7.6274L7.47398 8.76389C6.5676 10.2282 6.27937 11.9924 6.67259 13.6691C7.06581 15.3457 8.10833 16.7978 9.57125 17.7065C7.74312 18.4235 6.16281 19.7205 5.00703 21.4937C4.94692 21.5831 4.90517 21.6835 4.8842 21.7891C4.86323 21.8947 4.86347 22.0034 4.88489 22.109C4.90632 22.2145 4.9485 22.3147 5.009 22.4038C5.06949 22.4928 5.14709 22.569 5.23728 22.6278C5.32746 22.6867 5.42845 22.727 5.53435 22.7464C5.64026 22.7659 5.74897 22.7641 5.85418 22.7412C5.95939 22.7182 6.05899 22.6746 6.14719 22.6129C6.23539 22.5511 6.31044 22.4724 6.36797 22.3814C7.89852 20.0333 10.3157 18.6876 13 18.6876C15.6843 18.6876 18.1015 20.0333 19.632 22.3814C19.7512 22.5585 19.9353 22.6816 20.1445 22.7241C20.3537 22.7666 20.5712 22.725 20.75 22.6084C20.9288 22.4917 21.0545 22.3094 21.1 22.1009C21.1455 21.8923 21.107 21.6742 20.993 21.4937C19.8372 19.7205 18.2508 18.4235 16.4287 17.7065C17.8903 16.7978 18.9318 15.3467 19.325 13.6713C19.7181 11.9958 19.4308 10.2329 18.526 8.76897L23.007 7.276C23.1688 7.2221 23.3095 7.11864 23.4093 6.98029C23.509 6.84193 23.5627 6.6757 23.5627 6.50514C23.5627 6.33458 23.509 6.16835 23.4093 6.02999C23.3095 5.89164 23.1688 5.78818 23.007 5.73428V5.7292ZM17.875 12.1876C17.8752 12.9583 17.6927 13.7181 17.3424 14.4046C16.9921 15.0911 16.4841 15.6848 15.8599 16.1369C15.2358 16.589 14.5133 16.8868 13.7518 17.0056C12.9903 17.1245 12.2115 17.0611 11.4793 16.8207C10.747 16.5803 10.0822 16.1696 9.53935 15.6225C8.99652 15.0754 8.59114 14.4074 8.35647 13.6733C8.1218 12.9392 8.06454 12.1599 8.18937 11.3993C8.31421 10.6388 8.61758 9.91869 9.07461 9.29811L12.743 10.5169C12.9098 10.5725 13.0902 10.5725 13.257 10.5169L16.9254 9.29811C17.5427 10.135 17.8755 11.1477 17.875 12.1876ZM13 8.89389L5.81953 6.50006L13 4.10623L20.1805 6.50006L13 8.89389Z" fill="#73768C"/>
</svg>
