<svg width="26" height="26" viewBox="0 0 26 26" fill="none" xmlns="http://www.w3.org/2000/svg">
<path d="M21.9373 3.25H15.4373C15.3129 3.24999 15.1901 3.27855 15.0785 3.33349C14.9669 3.38843 14.8693 3.46828 14.7934 3.56687L8.29343 12.0179L7.31233 11.0388C7.16141 10.8877 6.98219 10.7679 6.78492 10.6861C6.58765 10.6043 6.3762 10.5622 6.16265 10.5622C5.9491 10.5622 5.73764 10.6043 5.54037 10.6861C5.3431 10.7679 5.16388 10.8877 5.01296 11.0388L3.72413 12.3287C3.57319 12.4796 3.45347 12.6587 3.37178 12.8559C3.29009 13.0531 3.24805 13.2644 3.24805 13.4779C3.24805 13.6913 3.29009 13.9026 3.37178 14.0998C3.45347 14.297 3.57319 14.4761 3.72413 14.627L5.75538 16.6583L2.91163 19.502C2.7607 19.6529 2.64097 19.8321 2.55928 20.0293C2.47759 20.2264 2.43555 20.4378 2.43555 20.6512C2.43555 20.8646 2.47759 21.076 2.55928 21.2732C2.64097 21.4703 2.7607 21.6495 2.91163 21.8004L4.20046 23.0882C4.50517 23.3927 4.91834 23.5638 5.34913 23.5638C5.77992 23.5638 6.19308 23.3927 6.4978 23.0882L9.34155 20.2445L11.3728 22.2757C11.5237 22.4268 11.7029 22.5466 11.9002 22.6284C12.0975 22.7102 12.3089 22.7523 12.5225 22.7523C12.736 22.7523 12.9475 22.7102 13.1448 22.6284C13.342 22.5466 13.5213 22.4268 13.6722 22.2757L14.961 20.9859C15.1119 20.835 15.2317 20.6558 15.3134 20.4586C15.395 20.2614 15.4371 20.0501 15.4371 19.8367C15.4371 19.6233 15.395 19.4119 15.3134 19.2147C15.2317 19.0176 15.1119 18.8384 14.961 18.6875L13.9819 17.7084L22.433 11.2084C22.5318 11.1323 22.6118 11.0345 22.6668 10.9225C22.7217 10.8104 22.7502 10.6873 22.7498 10.5625V4.0625C22.7498 3.84701 22.6642 3.64035 22.5119 3.48798C22.3595 3.3356 22.1528 3.25 21.9373 3.25ZM5.35116 21.9375L4.06233 20.6497L6.90608 17.8059L8.19389 19.0938L5.35116 21.9375ZM12.5225 21.125L4.87483 13.4784L6.16468 12.1875L13.8123 19.8362L12.5225 21.125ZM21.1248 10.1623L12.8231 16.5486L11.712 15.4375L16.8247 10.3248C16.977 10.1724 17.0625 9.96566 17.0624 9.75015C17.0623 9.53464 16.9766 9.32799 16.8242 9.17566C16.6717 9.02334 16.465 8.93782 16.2495 8.93792C16.034 8.93801 15.8273 9.02371 15.675 9.17617L10.5623 14.2878L9.45225 13.1767L15.8375 4.875H21.1248V10.1623Z" fill="#73768C"/>
</svg>
